# xmcd
#
# Track frame offsets:
#        150
#        10640
#        24930
#        35500
#        67850
#        79712
#        92765
#        110397
#        121240
#        139155
#        152737
#        168222
#        180457
#        196937
#        206990
#        219307
#        231710
#        244230
#
# Disc length: 3391 seconds
#
# Revision: 2
# Processed by: cddbd v1.5.1PL2 Copyright (c) Steve Scherf et al.
# Submitted via: ExactAudioCopy v0.95b3
#
DISCID=ea0d3d12
DTITLE=Buddy Guy - The Collection
DYEAR=2000
DGENRE=Blues
TTITLE0=First Time I Met The Blues
TTITLE1=Broken Hearted Blues
TTITLE2=I Got My Eyes On You
TTITLE3=Stone Crazy
TTITLE4=Ten Years Ago
TTITLE5=Let Me Love You Baby
TTITLE6=When My Left Eye Jumps
TTITLE7=Hard But It's Fair
TTITLE8=Worried Mind
TTITLE9=My Time After Awhile
TTITLE10=Leave My Girl Alone
TTITLE11=Crazy Love
TTITLE12=Every Girl I See
TTITLE13=Too Many Ways
TTITLE14=Mother-In-Law Blues
TTITLE15=Keep It To Myself
TTITLE16=I Suffer With The Blues
TTITLE17=She Suits Me To A Tee
EXTD=
EXTT0=
EXTT1=
EXTT2=
EXTT3=
EXTT4=
EXTT5=
EXTT6=
EXTT7=
EXTT8=
EXTT9=
EXTT10=
EXTT11=
EXTT12=
EXTT13=
EXTT14=
EXTT15=
EXTT16=
EXTT17=
PLAYORDER=
